<?xml version="1.0" standalone="no"?>
<svg xmlns:xlink="http://www.w3.org/1999/xlink" id="wave" style="transform:rotate(0deg); transition: 0.3s" viewBox="0 0 1440 250" version="1.1" xmlns="http://www.w3.org/2000/svg"><defs><linearGradient id="sw-gradient-0" x1="0" x2="0" y1="1" y2="0"><stop stop-color="rgba(241, 248, 253, 1)" offset="0%"/><stop stop-color="rgba(112.148, 158.507, 191.62, 1)" offset="100%"/></linearGradient></defs><path style="transform:translate(0, 0px); opacity:1" fill="url(#sw-gradient-0)" d="M0,75L30,66.7C60,58,120,42,180,50C240,58,300,92,360,87.5C420,83,480,42,540,45.8C600,50,660,100,720,112.5C780,125,840,100,900,79.2C960,58,1020,42,1080,45.8C1140,50,1200,75,1260,70.8C1320,67,1380,33,1440,50C1500,67,1560,133,1620,145.8C1680,158,1740,117,1800,120.8C1860,125,1920,175,1980,195.8C2040,217,2100,208,2160,175C2220,142,2280,83,2340,62.5C2400,42,2460,58,2520,54.2C2580,50,2640,25,2700,29.2C2760,33,2820,67,2880,79.2C2940,92,3000,83,3060,91.7C3120,100,3180,125,3240,129.2C3300,133,3360,117,3420,112.5C3480,108,3540,117,3600,112.5C3660,108,3720,92,3780,91.7C3840,92,3900,108,3960,108.3C4020,108,4080,92,4140,108.3C4200,125,4260,175,4290,200L4320,225L4320,250L4290,250C4260,250,4200,250,4140,250C4080,250,4020,250,3960,250C3900,250,3840,250,3780,250C3720,250,3660,250,3600,250C3540,250,3480,250,3420,250C3360,250,3300,250,3240,250C3180,250,3120,250,3060,250C3000,250,2940,250,2880,250C2820,250,2760,250,2700,250C2640,250,2580,250,2520,250C2460,250,2400,250,2340,250C2280,250,2220,250,2160,250C2100,250,2040,250,1980,250C1920,250,1860,250,1800,250C1740,250,1680,250,1620,250C1560,250,1500,250,1440,250C1380,250,1320,250,1260,250C1200,250,1140,250,1080,250C1020,250,960,250,900,250C840,250,780,250,720,250C660,250,600,250,540,250C480,250,420,250,360,250C300,250,240,250,180,250C120,250,60,250,30,250L0,250Z"/></svg>