<?xml version="1.0" standalone="no"?>
<svg xmlns:xlink="http://www.w3.org/1999/xlink" id="wave" style="transform:rotate(0deg); transition: 0.3s" viewBox="0 0 1440 290" version="1.1" xmlns="http://www.w3.org/2000/svg"><defs><linearGradient id="sw-gradient-0" x1="0" x2="0" y1="1" y2="0"><stop stop-color="rgba(241, 248, 253, 1)" offset="0%"/><stop stop-color="rgba(127.351, 168.826, 198.45, 1)" offset="100%"/></linearGradient></defs><path style="transform:translate(0, 0px); opacity:1" fill="url(#sw-gradient-0)" d="M0,116L30,101.5C60,87,120,58,180,72.5C240,87,300,145,360,149.8C420,155,480,106,540,101.5C600,97,660,135,720,169.2C780,203,840,232,900,246.5C960,261,1020,261,1080,222.3C1140,184,1200,106,1260,87C1320,68,1380,106,1440,111.2C1500,116,1560,87,1620,82.2C1680,77,1740,97,1800,111.2C1860,126,1920,135,1980,159.5C2040,184,2100,222,2160,222.3C2220,222,2280,184,2340,174C2400,164,2460,184,2520,178.8C2580,174,2640,145,2700,116C2760,87,2820,58,2880,67.7C2940,77,3000,126,3060,130.5C3120,135,3180,97,3240,82.2C3300,68,3360,77,3420,91.8C3480,106,3540,126,3600,154.7C3660,184,3720,222,3780,232C3840,242,3900,222,3960,217.5C4020,213,4080,222,4140,193.3C4200,164,4260,97,4290,62.8L4320,29L4320,290L4290,290C4260,290,4200,290,4140,290C4080,290,4020,290,3960,290C3900,290,3840,290,3780,290C3720,290,3660,290,3600,290C3540,290,3480,290,3420,290C3360,290,3300,290,3240,290C3180,290,3120,290,3060,290C3000,290,2940,290,2880,290C2820,290,2760,290,2700,290C2640,290,2580,290,2520,290C2460,290,2400,290,2340,290C2280,290,2220,290,2160,290C2100,290,2040,290,1980,290C1920,290,1860,290,1800,290C1740,290,1680,290,1620,290C1560,290,1500,290,1440,290C1380,290,1320,290,1260,290C1200,290,1140,290,1080,290C1020,290,960,290,900,290C840,290,780,290,720,290C660,290,600,290,540,290C480,290,420,290,360,290C300,290,240,290,180,290C120,290,60,290,30,290L0,290Z"/></svg>